<?xml version="1.0" standalone="no"?>
<!DOCTYPE svg PUBLIC "-//W3C//DTD SVG 20010904//EN"
 "http://www.w3.org/TR/2001/REC-SVG-20010904/DTD/svg10.dtd">
<svg version="1.0" xmlns="http://www.w3.org/2000/svg"
 width="157.000000pt" height="157.000000pt" viewBox="0 0 157.000000 157.000000"
 preserveAspectRatio="xMidYMid meet">
<metadata>
Created by potrace 1.14, written by Peter Selinger 2001-2017
</metadata>
<g transform="translate(0.000000,157.000000) scale(0.100000,-0.100000)"
fill="#000000" stroke="none">
<path d="M631 1553 c-140 -35 -255 -140 -326 -296 -52 -113 -78 -233 -91 -419
-3 -45 -14 -89 -34 -134 -110 -244 -138 -450 -65 -478 26 -9 77 17 148 78 l66
55 11 -34 c13 -40 7 -92 -19 -150 -22 -50 -20 -89 7 -124 17 -23 27 -26 79
-26 50 0 66 5 96 28 19 15 47 27 61 27 13 0 36 4 49 9 29 11 77 60 77 79 0 18
85 14 135 -8 22 -9 61 -37 86 -62 69 -70 165 -110 219 -93 27 9 43 67 36 132
-3 30 -8 58 -10 61 -2 4 15 44 39 90 l42 83 54 -46 c29 -25 73 -55 97 -66 37
-19 47 -20 68 -9 67 36 26 250 -92 482 -34 67 -38 81 -48 173 -30 248 -129
461 -263 564 -116 89 -277 122 -422 84z"/>
</g>
</svg>
